<?xml version="1.0" encoding="UTF-8" standalone="no"?> <!DOCTYPE svg PUBLIC "-//W3C//DTD SVG 1.1//EN" "http://www.w3.org/Graphics/SVG/1.1/DTD/svg11.dtd">
<svg height="100%" style="fill-rule:nonzero;clip-rule:evenodd;stroke-linecap:round;stroke-linejoin:round;" version="1.1" viewBox="0 0 700 700" width="100%" xml:space="preserve" xmlns="http://www.w3.org/2000/svg" xmlns:vectornator="http://vectornator.io" xmlns:xlink="http://www.w3.org/1999/xlink">
<metadata>
<vectornator:setting key="IsTimeLapseWatermarkDisabled" value="false"/>
<vectornator:setting key="UndoHistoryDisabled" value="true"/>
<vectornator:setting key="VNDimensionsVisible" value="true"/>
<vectornator:setting key="VNSnapToGuides" value="true"/>
<vectornator:setting key="WDCMYKEnabledKey" value="false"/>
<vectornator:setting key="WDDisplayWhiteBackground" value="false"/>
<vectornator:setting key="WDDynamicGuides" value="false"/>
<vectornator:setting key="WDGuidesVisible" value="true"/>
<vectornator:setting key="WDIsolateActiveLayer" value="false"/>
<vectornator:setting key="WDOutlineMode" value="false"/>
<vectornator:setting key="WDRulersVisible" value="true"/>
<vectornator:setting key="WDSnapToEdges" value="false"/>
<vectornator:setting key="WDSnapToGrid" value="false"/>
<vectornator:setting key="WDSnapToPoints" value="false"/>
<vectornator:setting key="WDUnits" value="Points"/>
</metadata>
<defs/>
<g id="Untitled" vectornator:layerName="Untitled">
<path d="M659.005 330.221L659.218 329.902L659.165 329.902C684.302 297.272 699.449 256.457 699.449 212.063C699.449 105.138 612.708 18.4726 505.814 18.4726C441.769 18.4726 385.278 49.6172 350 97.4525C314.722 49.5945 258.121 18.4726 194.186 18.4726C87.2614 18.4726 0.550601 105.108 0.550601 212.063C0.550601 256.451 15.7036 297.268 40.8124 329.902L40.7829 329.908L41.3149 330.463C42.9822 332.633 327.652 670.544 327.652 670.544C339.967 685.188 360.151 685.188 372.442 670.544C372.436 670.568 657.265 332.446 659.021 330.221L659.005 330.221Z" fill="#901c1c" opacity="1"/>
</g>
</svg>
